<svg xmlns="http://www.w3.org/2000/svg" width="50.344" height="37.171" viewBox="0 0 50.344 37.171">
  <g id="_102571" data-name="102571" transform="translate(21 -27.905)">
    <g id="Group_1617" data-name="Group 1617" transform="translate(-21 2)">
      <path id="Path_1" data-name="Path 1" d="M0,42.941H12.211c-.209,8.9-2.733,9.909-5.9,10.2l-1.222.152v9.786L6.494,63c4.14-.233,8.716-.979,11.77-4.749,2.677-3.3,3.857-8.7,3.857-16.99V25.9H0Z" fill="#b2b2b2"/>
      <path id="Path_2" data-name="Path 2" d="M111,25.9V42.941h12.048c-.209,8.9-2.651,9.909-5.821,10.2l-1.141.152v9.786L117.413,63c4.14-.233,8.757-.979,11.811-4.749,2.676-3.3,3.9-8.7,3.9-16.99V25.9Z" transform="translate(-82.777)" fill="#b2b2b2"/>
    </g>
  </g>
</svg>
