<svg xmlns="http://www.w3.org/2000/svg" xmlns:xlink="http://www.w3.org/1999/xlink" width="16" height="16" viewBox="0 0 16 16">
  <defs>
    <clipPath id="clip-path">
      <rect id="Rectangle_1178" data-name="Rectangle 1178" width="16" height="16" fill="#0a51a1"/>
    </clipPath>
  </defs>
  <g id="Mask_Group_3" data-name="Mask Group 3" clip-path="url(#clip-path)">
    <g id="inbox" transform="translate(0 0.391)">
      <g id="Group_1649" data-name="Group 1649">
        <g id="Group_1648" data-name="Group 1648">
          <path id="Path_1129" data-name="Path 1129" d="M15.944,17.466l-2.1-4.5a.335.335,0,0,0-.335-.186H11.721a.372.372,0,0,0,0,.744h1.544L15,17.243H12.874a2.437,2.437,0,0,0-2.233,1.433,1.73,1.73,0,0,1-1.563.986H6.921a1.73,1.73,0,0,1-1.563-.986,2.437,2.437,0,0,0-2.233-1.433H1.042l2.046-3.721H4.279a.372.372,0,1,0,0-.744H2.865a.353.353,0,0,0-.335.167l-2.456,4.5A.223.223,0,0,0,0,17.6v4.633a1.954,1.954,0,0,0,1.916,1.9H14.084A1.953,1.953,0,0,0,16,22.229V17.6A.279.279,0,0,0,15.944,17.466Zm-.688,4.763a1.209,1.209,0,0,1-1.172,1.153H1.916A1.209,1.209,0,0,1,.744,22.229V17.987H3.126a1.73,1.73,0,0,1,1.563.986,2.437,2.437,0,0,0,2.233,1.433H9.079a2.437,2.437,0,0,0,2.233-1.433,1.73,1.73,0,0,1,1.563-.986h2.381v4.242Z" transform="translate(0 -8.908)" fill="#fff"/>
          <path id="Path_1130" data-name="Path 1130" d="M18.009,9.786a.353.353,0,0,0,.5.021l.021-.021,2.53-2.549a.372.372,0,0,0-.521-.521l-1.9,1.9V1.544a.372.372,0,0,0-.744,0v7.07L16,6.716a.372.372,0,0,0-.521.521Z" transform="translate(-10.27 -1.172)" fill="#fff"/>
        </g>
      </g>
    </g>
  </g>
</svg>
