<svg xmlns="http://www.w3.org/2000/svg" width="16" height="16" viewBox="0 0 16 16">
  <path id="Icon_simple-whatsapp" data-name="Icon simple-whatsapp" d="M11.665,9.588c-.2-.1-1.178-.578-1.36-.644s-.315-.1-.449.1-.514.643-.629.775-.233.14-.431.05a5.411,5.411,0,0,1-1.6-.99A6.048,6.048,0,0,1,6.088,7.5c-.116-.2-.013-.31.087-.41s.2-.23.3-.349a1.69,1.69,0,0,0,.2-.331.366.366,0,0,0-.017-.349c-.05-.1-.448-1.08-.615-1.471s-.325-.34-.448-.34-.247-.01-.381-.01a.752.752,0,0,0-.531.239,2.226,2.226,0,0,0-.7,1.65A3.9,3.9,0,0,0,4.8,8.179a8.889,8.889,0,0,0,3.4,2.99c.476.2.847.32,1.136.419a2.758,2.758,0,0,0,1.253.081,2.052,2.052,0,0,0,1.344-.951,1.65,1.65,0,0,0,.12-.95c-.049-.09-.18-.14-.38-.23M8.041,14.5H8.03a6.669,6.669,0,0,1-3.37-.92l-.24-.143-2.5.65.67-2.43-.159-.25a6.612,6.612,0,0,1,10.3-8.157,6.525,6.525,0,0,1,1.939,4.66A6.62,6.62,0,0,1,8.045,14.5M13.68,2.3A8.1,8.1,0,0,0,8.03,0a7.926,7.926,0,0,0-6.9,11.892L0,16l4.223-1.1a8.041,8.041,0,0,0,3.807.965h0A7.96,7.96,0,0,0,16,7.933a7.863,7.863,0,0,0-2.33-5.607" fill="#003a71"/>
</svg>
