<svg xmlns="http://www.w3.org/2000/svg" xmlns:xlink="http://www.w3.org/1999/xlink" width="1366" height="700" viewBox="0 0 1366 700">
  <defs>
    <clipPath id="clip-path">
      <rect id="Rectangle_1155" data-name="Rectangle 1155" width="1366" height="700" fill="none"/>
    </clipPath>
  </defs>
  <g id="Group_1363" data-name="Group 1363" transform="translate(-5957 -2816)">
    <g id="Group_1362" data-name="Group 1362" transform="translate(5957 2816)">
      <g id="Group_1353" data-name="Group 1353" opacity="0.4">
        <g id="Group_1352" data-name="Group 1352">
          <g id="Group_1351" data-name="Group 1351" clip-path="url(#clip-path)">
            <g id="Group_1350" data-name="Group 1350" transform="translate(-154.155 -169.479)">
              <g id="Group_1339" data-name="Group 1339" transform="translate(1180 453.199)">
                <path id="Path_764" data-name="Path 764" d="M782.388,269.721c25.063,45.279-46.592,62.3-75.629,74.909-26.535,11.526-53.052,52.425-75.627,50.312-57.738-5.4-2.082-60.725-42.179-93.471-65.446-53.45,9.092-98.832,56.722-98.832S753.3,217.173,782.388,269.721Z" transform="translate(-563.239 -202.64)" fill="none" stroke="#84fea3" stroke-miterlimit="10" stroke-width="2" fill-rule="evenodd"/>
                <path id="Path_765" data-name="Path 765" d="M741.971,266.469c9.95,16.96,3.353,29.356-10.278,38.823-13.833,9.594-34.633,15.62-46.442,20.5-20.461,8.45-40.6,39.546-57.82,37.343-42.974-5.5-2.056-46.3-32.2-71.28-48.974-40.588,6.994-74.926,43-75.208C674.259,216.345,718.989,227.3,741.971,266.469Z" transform="translate(-552.728 -197.039)" fill="none" stroke="#84ebfe" stroke-miterlimit="10" stroke-width="0.813" fill-rule="evenodd"/>
                <path id="Path_766" data-name="Path 766" d="M701.556,263.224c7.478,11.47,5.652,20.729-3.437,28.2-9.221,7.552-25.366,12.136-34.378,15.536-14.341,5.413-27.843,24.278-40.009,24.375-27.886.22-2.031-31.877-22.217-49.092-32.5-27.72,4.894-51.019,29.278-51.582C655.214,230.056,684.741,237.436,701.556,263.224Z" transform="translate(-542.218 -191.444)" fill="none" stroke="#84ebfe" stroke-miterlimit="10" stroke-width="0.625" fill-rule="evenodd"/>
                <path id="Path_767" data-name="Path 767" d="M661.141,259.995c5.083,6.051,7.95,12.1,3.406,17.569-4.61,5.509-16.051,8.665-22.311,10.574-8.125,2.477-15.363,10.739-22.2,11.405-15.96,1.556-2.005-17.439-12.238-26.9-16.039-14.833,2.8-27.088,15.558-27.958C636.174,243.809,650.743,247.614,661.141,259.995Z" transform="translate(-531.709 -185.865)" fill="none" stroke="#84ebfe" stroke-miterlimit="10" stroke-width="0.438" fill-rule="evenodd"/>
                <path id="Path_768" data-name="Path 768" d="M631.13,264.2c0,3.467-6.577,5.613-10.249,5.613a6.288,6.288,0,1,1,0-12.555C624.554,257.263,631.13,260.738,631.13,264.2Z" transform="translate(-521.355 -180.784)" fill="none" stroke="#87d2e5" stroke-miterlimit="10" stroke-width="0.5" fill-rule="evenodd"/>
              </g>
              <g id="Group_1340" data-name="Group 1340" transform="translate(1025.714 333.665)">
                <path id="Path_769" data-name="Path 769" d="M857.079,485.293c-13.629,19-36.3,33.163-63.246,39.626-40.414,9.7-99.3,16.855-149.755-4.385-86.69-36.494-54.968-59.641-110.7-105.656s-68.874-69.573-39.976-132.7,20.639-28.217,61.922-98.032S640.1,110.134,685.739,123c54.573,15.382,189.4,154.669,305.838,48.292,58.634-53.569,187.095,43.9,154.071,110.891s15.2,150.645-59.1,140.52-98.665-1.018-156.285,10.089C895.987,439.4,871.388,465.347,857.079,485.293Z" transform="translate(-478.528 -117.266)" fill="none" stroke="#87d2e5" stroke-miterlimit="10" stroke-width="1" fill-rule="evenodd"/>
                <path id="Path_770" data-name="Path 770" d="M577.1,184.671c40.368-50.2,72.851-54.435,111.486-43.563,18.619,5.238,42.543,25,71.97,42.568,48.231,28.8,127.195,47.111,188.253,12.793,76.5-43,141.135,36.113,116.818,92.4-10.567,24.456.481,33.988-2.3,56-3.657,28.919-17.264,53.731-53.174,56.993-61.233,5.563-82.14,8.514-122.355,18.2-3.269.8-6.65,1.611-10.167,2.436-27.992,6.55-48.761,27.759-61.883,44.291-12.283,15.474-31.36,27.224-53.962,32.788-33.369,8.186-80.649,13.4-121.4-3.332C572,467.938,592.7,448.784,548.5,412.273c-22.6-18.689-36.507-35.508-44.419-52.665-10.21-22.114-10.2-45.893,2.342-78.807,13.609-35.716,18.009-42.774,30.591-56.96C545.6,214.162,560.967,204.73,577.1,184.671Z" transform="translate(-463.604 -109.687)" fill="none" stroke="#87d2e5" stroke-miterlimit="10" stroke-width="0.859" fill-rule="evenodd"/>
                <path id="Path_771" data-name="Path 771" d="M599.152,185.2c36.8-30.639,60.933-34.855,92.557-25.976,16.144,4.529,35.68,19,59.08,31.753,40.332,21.993,101.494,43.122,157.786,20.989,42.84-16.843,154.944-40.6,77.31,83.589-9.912,15.852-9.921,33.83-12.768,50.927-3.065,18.414-8.689,30.336-31.667,38.673C912.378,395.7,879.741,397.2,849.562,405.11c-29.994,7.858-56.676,23.224-74.875,43.17-10.908,11.956-26.415,21.285-44.679,25.95-26.324,6.677-62.06,10.037-93.039-2.281-16.882-6.712-31.819-15.132-42.271-27.487-24.453-28.91-56.709-54.553-71.047-87.73-9.8-22.63-12.605-47.122-3.929-77.3,9.078-31.573,14.421-44.881,29.085-60.589C559.919,206.933,581.345,200.026,599.152,185.2Z" transform="translate(-448.958 -102.117)" fill="none" stroke="#87d2e5" stroke-miterlimit="10" stroke-width="0.719" fill-rule="evenodd"/>
                <path id="Path_772" data-name="Path 772" d="M606.481,186c25.317-9.636,54.387-13.244,82.441-7.824,38.893,7.513,69.794,30.765,108.063,39.973,26.6,6.4,57,6.17,79.029,19.291,17.787,10.593,26.444,28.1,29.325,45.253a93.378,93.378,0,0,1-8.706,56.956c-7.628,15.469-20.414,30.29-39.665,37.681-16.663,6.4-36.226,6.564-53.677,11.569-36.5,10.467-57.966,39.933-91.935,54.591C613.125,485.875,541.7,373.062,533.724,315.1c-4.854-35.283.428-80.3,33.616-106.983A145.079,145.079,0,0,1,606.481,186Z" transform="translate(-434.47 -93.906)" fill="none" stroke="#87d2e5" stroke-miterlimit="10" stroke-width="0.578" fill-rule="evenodd"/>
                <path id="Path_773" data-name="Path 773" d="M726.545,392.1c-11.684,7.286-22.18,15.67-34.188,22.64-12.181,7.072-26.438,12.749-41.694,13.164-14.915.406-29.527-4.331-41.271-11.411-27.573-16.622-39.266-44.129-47.8-70.255-6.54-20.031-12.1-40.378-13.141-61.017-1.758-34.962,10.418-78.422,57.933-92.384,53.538-15.732,118.281,8.262,163.344,29.544,19.885,9.392,39.093,20.226,53.121,34.565s22.448,32.652,18.694,50.36c-4.384,20.676-24.331,37.467-46.357,49.8s-46.9,21.535-68.13,34.674Z" transform="translate(-421.23 -89.055)" fill="none" stroke="#87d2e5" stroke-miterlimit="10" stroke-width="0.438" fill-rule="evenodd"/>
              </g>
              <g id="Group_1341" data-name="Group 1341" transform="translate(87.982 617.037)">
                <path id="Path_774" data-name="Path 774" d="M-36.332,388.148s73.252-98.5,213.1-59.252,35.516,93.853,202,97.266-8.879,138.22,228.637,204.77H-18.574Z" transform="translate(36.332 -319.657)" fill="none" stroke="#87d2e5" stroke-miterlimit="10" stroke-width="1" fill-rule="evenodd"/>
                <path id="Path_775" data-name="Path 775" d="M346.264,437.979C487.8,452.012,330.379,559.539,541.276,615.87H-14.549l-15.769-205.5s61.19-93.725,185.363-60.5S207.432,424.216,346.264,437.979Z" transform="translate(41.272 -310.423)" fill="none" stroke="#86ddd5" stroke-miterlimit="10" stroke-width="0.813" fill-rule="evenodd"/>
                <path id="Path_776" data-name="Path 776" d="M313.761,449.842c116.773,24.987-22.894,104.9,161.386,151.009H-10.526L-24.3,432.629s49.125-88.95,157.625-61.757S202.742,426.087,313.761,449.842Z" transform="translate(46.211 -301.234)" fill="none" stroke="#86e8c4" stroke-miterlimit="10" stroke-width="0.625" fill-rule="evenodd"/>
                <path id="Path_777" data-name="Path 777" d="M281.257,461.762c91.946,36.57-29.9,88.236,127.761,124.128H-6.5L-18.29,454.95s37.06-84.177,129.89-63.01S197.981,428.641,281.257,461.762Z" transform="translate(51.15 -292.101)" fill="none" stroke="#85f3b3" stroke-miterlimit="10" stroke-width="0.438" fill-rule="evenodd"/>
                <path id="Path_778" data-name="Path 778" d="M-12.275,477.345s24.994-79.4,102.151-64.261,102.5,18.91,158.877,60.673c66.153,49-36.908,71.574,94.136,97.247H-2.478Z" transform="translate(56.091 -283.044)" fill="none" stroke="#84fea3" stroke-miterlimit="10" stroke-width="0.25" fill-rule="evenodd"/>
              </g>
              <g id="Group_1342" data-name="Group 1342" transform="translate(147.278 766.536)">
                <path id="Path_779" data-name="Path 779" d="M71.28,498.877a2.792,2.792,0,0,1-.49.825c-2.987,3.483-10.766,1.924-15.035,1.271-6.777-1.039-13.347-1.418-20.246-1.889-4.054-.276-9.567.333-13.079-1.6-5.091-2.807-2.827-7.6,2.056-9.563a48.1,48.1,0,0,1,10.576-2.362C45.034,484.062,76.643,484.866,71.28,498.877Z" transform="translate(22.933 -402.991)" fill="none" stroke="#87d2e5" stroke-miterlimit="10" stroke-width="0.25" fill-rule="evenodd"/>
                <path id="Path_780" data-name="Path 780" d="M60.248,474.407c13.891,3.9,35,10.081,40.179,21.945,4.735,10.843-2.839,16.115-4.426,15.925-3.288-.4-62.444-.755-66.393-.755-13.287,0-17.27-19.071-16.235-25.212,2.329-13.83,30.216-15.894,43.779-12.7Q58.714,473.973,60.248,474.407Z" transform="translate(17.733 -408.082)" fill="none" stroke="#87d2e5" stroke-miterlimit="10" stroke-width="0.438" fill-rule="evenodd"/>
                <path id="Path_781" data-name="Path 781" d="M60.012,457.058a134.853,134.853,0,0,1,45.746,9.2c13.312,5.432,25.424,13.217,33.485,23.088a40.759,40.759,0,0,1,2.634,3.591c13.746,21.229-1.894,32.729-2.951,32.6-2.191-.265-115.482-.5-118.168-.5-12.139,0-12.625-20.13-13.074-26.241-.592-8.055.943-16.771,5.7-24.032C22.234,461.23,40.719,456.686,60.012,457.058Z" transform="translate(13.09 -414.188)" fill="none" stroke="#87d2e5" stroke-miterlimit="10" stroke-width="0.625" fill-rule="evenodd"/>
                <path id="Path_782" data-name="Path 782" d="M54.247,443.245c41-4.447,106.229,17,128.646,48.434,22.513,31.573-.947,49.34-1.477,49.277-1.095-.133-168.626-.252-169.943-.252-3.187,0-6.963-32.411-8.83-51.1a38.2,38.2,0,0,1,8.651-28.162,43,43,0,0,1,12.035-10.221C32.677,445.812,41.878,444.586,54.247,443.245Z" transform="translate(8.892 -419.94)" fill="none" stroke="#87d2e5" stroke-miterlimit="10" stroke-width="0.813" fill-rule="evenodd"/>
                <path id="Path_783" data-name="Path 783" d="M-3.776,474.7c0-10.078,2.921-37.934,53.218-46.6,54.137-9.328,143.743,21.525,175.38,63.993,31.227,41.917,0,65.954,0,65.954H3.1Z" transform="translate(3.776 -426.433)" fill="none" stroke="#87d2e5" stroke-miterlimit="10" stroke-width="1" fill-rule="evenodd"/>
              </g>
              <g id="Group_1343" data-name="Group 1343" transform="translate(31.157)">
                <path id="Path_784" data-name="Path 784" d="M11.1,68.228s-8.311,82.96,69.167,69.142c130.639-23.3,119.864,10.3,174.482-50.964,44.3-49.7,40.525,42.475,104.523,39.7s64.8-16.74,99.4-15.988c69.5,1.508,81.109-15.88,81.124-43.835.056-116.993-297.5-252.72-436.3-152.3C16.5-23.064,11.1,68.228,11.1,68.228Z" transform="translate(131.901 121.046)" fill="none" stroke="#87d2e5" stroke-miterlimit="10" stroke-width="0.438" fill-rule="evenodd"/>
                <path id="Path_785" data-name="Path 785" d="M364.059,160.972c29.89,1.091,57.745-4.7,70.438-8.9,19.538-6.471,25.75-18.056,52.074-18.806,63.667-1.815,85.468-10.869,89.256-33.639a68.439,68.439,0,0,0,.341-16.785c-1.752-20.454-8.143-41.3-12.886-62.067-3.176-13.909-9.484-31.752-27.258-45.99C438.254-103.533,212.263-159.851,100.029-80.8,9.257-16.875,6.128,51.267,1.821,74.424.495,81.55-.343,87.287-.924,89.5c-1.993,7.575-11.03,91.841,75.864,70.932,137.128-33,140.654-3.743,190.841-48.307C305.617,76.749,305.971,158.852,364.059,160.972Z" transform="translate(121.219 121.887)" fill="none" stroke="#87d2e5" stroke-miterlimit="10" stroke-width="0.531" fill-rule="evenodd"/>
                <path id="Path_786" data-name="Path 786" d="M368.888,195.871c33.1,1.072,72.917-5.166,86.566-10.33,22.747-8.6,26.493-27.048,59.057-29.1,71.138-4.49,96.445-11.825,99-38.3a76.427,76.427,0,0,0-.931-18.708c-3.513-22.574-9.824-44.408-5.624-68.728,2.337-13.52,3.377-36.518-17.148-52.309C488.043-99.9,220.052-160.912,96.6-75.56-18.55,4.056-5.859,75.74-9.305,94.265c-1.062,5.7-2.439,12.121-3.6,16.545-3.983,15.148-13.7,100.992,82.563,72.721,143.718-42.209,161.705-18.288,207.2-45.651C312.576,116.4,316.681,194.18,368.888,195.871Z" transform="translate(110.494 122.689)" fill="none" stroke="#87d2e5" stroke-miterlimit="10" stroke-width="0.625" fill-rule="evenodd"/>
                <path id="Path_787" data-name="Path 787" d="M373.733,230.8c36.294,2.443,88.069-5.668,102.694-11.755,25.921-10.791,27.245-35.955,66.038-39.4,78.629-6.982,107.448-12.779,108.75-42.968a83.385,83.385,0,0,0-2.2-20.634c-5.273-24.691-13.041-47.524,1.641-75.385,6.919-13.132,16.272-41.313-7.039-58.629C538.041-96.4,227.744-162.042,93.192-70.291-46.441,24.924-17.831,100.235-20.416,114.129c-.8,4.276-2.712,11.377-4.457,18.014-5.974,22.723-16.283,110.353,89.262,74.51C214.84,155.558,248.6,173.38,287.95,163.658,320.907,155.515,327.493,227.681,373.733,230.8Z" transform="translate(99.755 123.468)" fill="none" stroke="#87d2e5" stroke-miterlimit="10" stroke-width="0.719" fill-rule="evenodd"/>
                <path id="Path_788" data-name="Path 788" d="M378.583,265.733c39.465,4.086,103.2-6.189,118.82-13.181,29.067-13.016,28.014-44.8,73.021-49.7,86.147-9.37,118.543-13.734,118.5-47.632.024-7.51-1.513-15.005-3.473-22.557-7.034-26.811-17.312-51.326,8.9-82.044,11.136-13.048,29.2-46.137,3.073-64.95C588.18-92.984,235.382-163.21,89.783-65.006-74.408,45.738-29.8,124.745-31.523,134.009c-.532,2.851-2.987,10.634-5.313,19.483-7.965,30.3-18.752,119.876,95.961,76.3,157.332-59.767,209.388-46.338,239.921-40.337C331.61,195.855,338.277,261.562,378.583,265.733Z" transform="translate(89.011 124.232)" fill="none" stroke="#87d2e5" stroke-miterlimit="10" stroke-width="0.813" fill-rule="evenodd"/>
                <path id="Path_789" data-name="Path 789" d="M383.431,300.7c42.534,6.118,118.323-6.721,134.946-14.607,32.183-15.268,28.8-53.6,80-59.991,93.691-11.694,129.548-14.691,128.246-52.3-.268-8.257-2.3-16.381-4.746-24.483-8.793-28.929-21.932-55.8,16.168-88.7C753.382,47.379,780.2,9.637,751.229-10.649,638.41-89.631,242.835-164.514,86.375-59.694-102.616,66.367-41.772,149.285-42.634,153.917c-.264,1.425-3.258,9.89-6.167,20.951-9.955,37.872-21.113,129.521,102.658,78.089,164.353-68.294,232.455-56.886,256.283-37.68C339.831,239.208,348.971,295.745,383.431,300.7Z" transform="translate(78.27 124.967)" fill="none" stroke="#87d2e5" stroke-miterlimit="10" stroke-width="0.906" fill-rule="evenodd"/>
                <path id="Path_790" data-name="Path 790" d="M-53.747,173.8s-69.16,179.024,102.335,102.3S301.426,207.46,321.23,241.077c23.918,40.6,38.279,89.021,67.043,94.567,45.368,8.748,133.434-7.261,151.074-16.033,35.276-17.544,29.593-62.366,86.987-70.287,101.257-13.975,140.552-15.649,137.993-56.961S717.869,114.9,781.739,70.594C801.371,56.978,836.882,14.737,805.03-7,688.7-86.371,250.556-165.6,82.961-54.4-130.519,87.24-53.747,173.8-53.747,173.8Z" transform="translate(67.532 125.726)" fill="none" stroke="#87d2e5" stroke-miterlimit="10" stroke-width="1" fill-rule="evenodd"/>
              </g>
              <g id="Group_1344" data-name="Group 1344" transform="translate(198.204 62.278)">
                <path id="Path_791" data-name="Path 791" d="M411.781,63.667c-12.768,3.388-42.892,12.755-73.782,0C302.015,48.81,295.347,18.3,258.924,24.318c-38.21,6.317-23.289,53.237-102.661,56.26-52.469,2-112.915,3.628-127.448-35.044C16.546,12.889,26.168-6.479,88.145-29.72S325.151-78.851,329.927-76.4s163.711,95.7,143.224,121.557C460.352,61.309,443.4,55.277,411.781,63.667Z" transform="translate(-24.185 76.565)" fill="none" stroke="#84fea3" stroke-miterlimit="10" stroke-width="2" fill-rule="evenodd"/>
              </g>
              <g id="Group_1345" data-name="Group 1345" transform="translate(585.361 520.04)">
                <path id="Path_792" data-name="Path 792" d="M327.062,335.968a6.536,6.536,0,0,1-1.273,5.089,4.431,4.431,0,0,1-4.61,1.246,3.938,3.938,0,0,1-2.1-2.344,11.94,11.94,0,0,1-.789-6.5c.264-1.64,1.965-5.141,5-4.381a3.245,3.245,0,0,1,1.876,1.543A12.948,12.948,0,0,1,327.062,335.968Z" transform="translate(-169.903 -218.935)" fill="none" stroke="#87d2e5" stroke-miterlimit="10" stroke-width="0.25" fill-rule="evenodd"/>
                <path id="Path_793" data-name="Path 793" d="M350.429,330.934c4.089,11.761,6.693,29.365-6.247,30.243-4.3.291-7.1-2.166-10.194-4.02-7.309-4.375-17.113-3.2-24-8.234-10.81-7.9-1.424-18.644,7.941-24.338,7.833-4.763,21.681-13.241,28.544-2.461A46.145,46.145,0,0,1,350.429,330.934Z" transform="translate(-180.575 -223.765)" fill="none" stroke="#87d2e5" stroke-miterlimit="10" stroke-width="0.375" fill-rule="evenodd"/>
                <path id="Path_794" data-name="Path 794" d="M378.485,333.277a78.953,78.953,0,0,1-.122,15.316c-1.064,10.686,5.6,33.707-16.2,33.426-7.779-.1-11.775-5.018-16.805-8.741-12.922-9.566-31.367-6-44.878-14.666-9.247-5.932-11.1-16.523-6.063-24.67,4.51-7.3,14.447-12.941,22.732-17.5,11.212-6.172,29.671-17.283,44.147-11.064C373.158,310.472,377.389,322.105,378.485,333.277Z" transform="translate(-191.635 -229.107)" fill="none" stroke="#87d2e5" stroke-miterlimit="10" stroke-width="0.5" fill-rule="evenodd"/>
                <path id="Path_795" data-name="Path 795" d="M405.971,335.581c1.116,5.651,1.351,9.855.8,13.3-1.37,8.611-6.216,12.36-4.945,26.237.273,2.887.588,5.57.832,8.042,1.346,13.627.6,20.587-22.521,19.6-19.827-.855-21.523-21.8-48.577-24.508q-1.489-.149-3.078-.231c-15.565-.731-28.54-4.354-37.514-9.826-12.086-7.369-15.755-20.638-10.591-31.57,5.981-12.665,22.193-21.112,35.993-28.436,22.852-12.129,64.8-33.709,79.951.993C398.913,315.111,403.1,321.03,405.971,335.581Z" transform="translate(-202.789 -234.386)" fill="none" stroke="#87d2e5" stroke-miterlimit="10" stroke-width="0.625" fill-rule="evenodd"/>
                <path id="Path_796" data-name="Path 796" d="M433.154,337.967c1.28,7.447,1.288,12.841.446,17.221-2.133,11.109-8.735,15.628-7.152,33.623.33,3.707.729,7.145,1.038,10.3,1.727,17.545.829,26.2-29.6,24.441-26.105-1.519-27.679-29.75-63.233-33.09q-1.945-.187-4.025-.273c-20.43-.816-37.58-5.32-49.4-12.355-11.853-7.055-17.321-18.816-16.354-30.114,1.118-13.06,11.065-22.983,23.226-31.536a237.684,237.684,0,0,1,27.262-16.191c30.323-15.863,86.362-43.908,105.656,2.719C424.315,310.691,429.825,318.6,433.154,337.967Z" transform="translate(-213.749 -239.716)" fill="none" stroke="#87d2e5" stroke-miterlimit="10" stroke-width="0.75" fill-rule="evenodd"/>
                <path id="Path_797" data-name="Path 797" d="M460.53,340.335c1.446,9.246,1.222,15.826.088,21.142-2.9,13.6-11.254,18.9-9.362,41.007.39,4.531.869,8.72,1.246,12.558,2.105,21.464,1.06,31.821-36.685,29.279-32.387-2.186-33.846-37.656-77.891-41.676q-2.4-.221-4.974-.315c-25.293-.9-46.6-6.306-61.282-14.885-26.868-15.694-26.007-45.816-5.184-64.7,13.516-12.257,30.773-22.1,48.047-30.976,37.856-19.529,107.929-54.1,131.36,4.447C449.909,306.255,456.75,316.165,460.53,340.335Z" transform="translate(-224.924 -245.047)" fill="none" stroke="#87d2e5" stroke-miterlimit="10" stroke-width="0.875" fill-rule="evenodd"/>
                <path id="Path_798" data-name="Path 798" d="M240.314,342.76c7-15.821,23.366-29.222,40.312-40.088,10.733-6.88,22.089-13.178,33.724-19.124,45.388-23.194,129.493-64.292,157.063,6.175,4.734,12.094,12.908,24,17.135,52.979,5.761,39.488-14.9,37.04-11.841,73.454,2.974,35.416,10.766,52.845-42.317,48.93-40.066-2.953-40.057-48.71-98.469-50.616-38.1-1.243-90.1-13.086-98.1-46.592A38.5,38.5,0,0,1,240.314,342.76Z" transform="translate(-236.753 -250.38)" fill="none" stroke="#87d2e5" stroke-miterlimit="10" stroke-width="1" fill-rule="evenodd"/>
              </g>
              <g id="Group_1346" data-name="Group 1346" transform="translate(408.687 116.108)">
                <path id="Path_799" data-name="Path 799" d="M460.494,618.537c-46.765-52.094-122.842-71.51-192.621-78.834-39.024-2.495-78.179-19.561-95.97-47.646-21.9-34.573-4.464-70.609,30.187-94.6,18.31-12.677,39.053-21.266,62.683-26.377,51.371-11.11,108.888-21.209,151.772-47.3,19.891-12.1,19.321-27.9,31.655-43.394,11.522-14.473,32.2-21.373,52.05-26.961,25.078-7.061,46.165-7.233,72.542-3.923,21.262,2.669,42.481-6.189,53.309-20.475,30.957-40.844-7.97-89.574-15.438-130.826-2.692-14.873-1.41-32.117,17.753-40.055,11.118-4.6,22.717-9.617,29.584-18.088,4.6-5.675,6.856-12.171,10.2-18.287,3.552-6.49,8.719-12.257,14.05-17.948C710-25.8,756.856-26,811.11-26.228l4.4-.017c52.984,0,350.648,18.893,415.375,23.042,4.945,13.5,18.049,4.283,20.76,13.7C1223,12.748,1207.634,56.931,1201.7,66.912c-50.462,84.87-180.086,44.4-259.354,21.23-57.694-16.864-167.519,22.3-193.531,30.993-32.525,10.871-31.642,45.686-29.7,64.138,3.865,36.647-37.461,41.4-67.832,65.741-27.247,21.842-23.594,52.066-25.367,81.322-1.7,27.979-3.987,56.66-6.826,84.633-2.575,25.356-7.733,58.99-4.777,84.763,4.195,36.573,28.271,96.328-10.52,129.188C582.939,646.589,489.608,650.971,460.494,618.537Z" transform="translate(-121.299 42.869)" fill="none" stroke="#84ebfe" stroke-miterlimit="10" stroke-width="0.25"/>
                <path id="Path_800" data-name="Path 800" d="M635.482,445.724c-.526,16.964,1.756,34.184,8.617,50.371,6.908,16.3,21.237,29.176,28.981,45.087,17.623,36.207-10.7,78.193-47.38,100.9-22.393,13.863-51.145,22.041-79.485,24.859-60.144,5.981-104.011-30.147-144.9-60.995-37.833-28.544-67.91-50.446-133.724-59.5-23.983-3.3-46.506-6.373-67.887-16.582-48.764-23.281-52.249-78.929-27.4-118.053,3.643-5.733,7.455-11.6,11.737-17.072,15.587-19.893,48.1-29.719,75.76-35.646,23.4-5.014,46.958-11.541,70.7-16.421,22.546-4.634,46.145-7.58,66.049-17.591,8.489-4.27,15.232-10.077,18.776-17.445,5.018-10.43,11.194-16.8,16.432-27.182,7.588-15.037,27.7-24.428,45.81-30.929,20.889-7.5,44.118-13.725,67.455-12.478,21.929,1.172,48.3,5.252,65.44-8.364,11.593-9.207,15.8-26.3,16.234-38.141,1.026-28.082-11.627-50.766-20.974-83.3-3.251-11.316-3.459-24.111,1.736-35.259,4.861-10.432,17.762-16.446,29.118-22.318,10.112-5.228,18.776-12.156,24.349-20.533,6.141-9.235,11.044-18.487,19.064-26.978,29.18-30.891,74.256-31.441,128.537-31.7l4.515-.02c2.349,0,4.972.014,7.844.049,65.836.858,376.961,20.61,418.708,23.264,3.324,9,8.664,23.939,12.279,35.584-11.161,8.278-18.272,18.185-20.938,28.435-23.317,89.62-91.526,123.667-151.841,103.476-82.109-27.487-126.444-61.552-205.18-44.746-18.483,3.946-47.244,16.526-58.851,26.948-19.468,17.482-40.616,34.139-57.88,52.99-18.337,20.022-59.013,50.679-77.27,70.751-27.579,30.322-12.771,54.5-24.1,89.231C646.579,384.725,636.413,415.755,635.482,445.724Z" transform="translate(-125.446 41.538)" fill="none" stroke="#87d2e5" stroke-miterlimit="10" stroke-width="0.5" fill-rule="evenodd"/>
                <path id="Path_801" data-name="Path 801" d="M673.878,403.948c-.572,28.61,7.742,56.863,29,82.841,11.42,13.959,38.752,18.1,41.594,38.7,4.377,31.734-31.862,52.3-55.281,100.137-13.578,27.736-50.966,45.626-84.521,57.125-28.524,9.776-60.181,17.091-91.551,18.279-26.355,1-50-8.241-69.063-21.677-43.934-30.971-66.566-76.005-114.622-104.119a210.955,210.955,0,0,0-57.194-22.517c-24.413-5.764-49.3-7.936-71.835-18.112-69.784-31.514-55.192-111.591-13.2-154.32,22.537-22.933,57.558-35.74,93.143-42.366,21.091-3.927,42.818-3.961,64.16-6.6,32.928-4.07,59.785-21.238,73.433-44.34,14.234-24.093,40.242-42.877,72.383-52.335a189.039,189.039,0,0,1,50.358-7.345c18.228-.265,39.949,6.3,56.458-2.083,32.351-16.426,24.045-53.839,16.747-78.291-7.409-24.817-25.136-65.533,1.475-87.178,8.17-6.646,19.4-10.337,27.814-16.8A57.66,57.66,0,0,0,659.83,23.286C663.866,15.2,669.617,8.006,676.238,1c30.378-32.161,79.647-33.578,133.5-33.869,1.036-.007,3.552-.018,4.592-.022,2.535-.008,5.213-.006,8.016.007,61.985.3,405.383,22.248,426.257,23.575,1.661,4.5,7.53,20.32,12.028,34.191a31.161,31.161,0,0,1-2.787,7.624c-.119,7.894-3.217,14.752-4.349,18.3-20,62.7-45.038,178.2-148.007,153.8-31.515-7.468-53.647-24.809-80.355-37.6-31.491-15.085-65.626-28.5-103.071-31.433-57.233-4.483-94.145,35.676-129.233,66.231-31.2,27.168-55.944,54.539-74.509,87.657C697.717,326.221,674.694,363.087,673.878,403.948Z" transform="translate(-129.785 40.207)" fill="none" stroke="#87d2e5" stroke-miterlimit="10" stroke-width="0.75" fill-rule="evenodd"/>
                <path id="Path_802" data-name="Path 802" d="M291.1,562.145a102.781,102.781,0,0,0-22.743-4.171c-33.013-2.485-151.473-19.008-124.707-127.891,19.131-77.826,63.228-95.7,137.021-101.358s101.273-4.018,132.38-55.34c22.535-37.18,40.732-40.8,89.165-47.843,85.863-12.479,124.5-10.64,108.247-65.626-15.58-52.7-26.866-89.973,16.682-115.149,34.9-20.176,29.109-23.949,36.458-52.2C674.988-51.175,771.3-35.235,829.435-35.494s433.807,23.887,433.807,23.887,24.6,64.221,17.889,62.153-6.207,169.934-76.44,193.66c-50.025,16.9-82.275,5.96-163.913-49.951-81.086-55.534-157.6-40.907-190.185-4.532-33.221,37.081-66.98,87.411-92.739,128.612-33.411,53.438-66.249,101.437-19.751,149.546,15.447,15.982,53.085,19.984,56.081,45.892,4.114,35.594-28.032,46.5-53.913,110.965C709.258,701.983,541.863,743.032,499.128,736.78,279.562,704.657,402.73,596.864,291.1,562.145Z" transform="translate(-139.751 38.118)" fill="none" stroke="#84fea3" stroke-miterlimit="10" stroke-width="2" fill-rule="evenodd"/>
              </g>
              <g id="Group_1347" data-name="Group 1347" transform="translate(0 357.779)">
                <path id="Path_803" data-name="Path 803" d="M47.16,222.047c129.785-84.69,269.5-126.45,278.054-39.355s51.332,67.573-11.89,136.25c-15.658,17.009-11.092,55.095-22.042,64.527-26.668,22.969-135.7-28.455-201.7-11.982C18.989,389.108,3.147,439.67-25.018,462.4s-90.214-142.882-41.59-219.635C-53.482,222.047-69.351,298.075,47.16,222.047Z" transform="translate(84.639 -134.489)" fill="none" stroke="#87d2e5" stroke-miterlimit="10" stroke-width="1" fill-rule="evenodd"/>
                <path id="Path_804" data-name="Path 804" d="M-46.62,248.239c8.752-13.815,3.783,35.112,90.324-18.925,15.638-9.766,31.739-18.9,47.723-27.365,83.978-44.574,162.042-60.767,173.375-6.914,13,61.766,40.317,51.971-2.013,101.325-11.229,13.093-9.249,40.262-17.407,48.244-21.8,21.329-106.506-9.689-160.427-2.635C27.894,349.432-.116,389.883-18.892,405.04S-79.037,299.408-46.62,248.239Z" transform="translate(105.991 -123.849)" fill="none" stroke="#87d2e5" stroke-miterlimit="10" stroke-width="0.75" fill-rule="evenodd"/>
                <path id="Path_805" data-name="Path 805" d="M-26.633,253.779c4.377-6.908,10.5,15.067,66.879-17.131,11.239-6.418,23.107-12.64,35.059-18.844,58.492-30.51,113.2-44.613,129.082-10.358,16.824,36.286,29.67,36.638,7.865,66.4-6.761,9.228-7.314,25.5-12.773,31.961-16.758,19.847-77.214,9.19-119.153,6.711-43.424-2.566-83.7,27.648-93.094,35.227S-42.841,279.363-26.633,253.779Z" transform="translate(127.344 -113.28)" fill="none" stroke="#87d2e5" stroke-miterlimit="10" stroke-width="0.5" fill-rule="evenodd"/>
                <path id="Path_806" data-name="Path 806" d="M-6.645,290.546s52.467-19.684,82.341-7.381,66.728,2.545,77.882-16.057c7.883-13.146,19.876-28.878-9.6-47.156-22.448-13.919-51.786-2.642-84.792,13.8C21.992,252.287-6.645,259.413-6.645,259.413Z" transform="translate(148.697 -102.806)" fill="none" stroke="#87d2e5" stroke-miterlimit="10" stroke-width="0.25" fill-rule="evenodd"/>
              </g>
              <g id="Group_1348" data-name="Group 1348" transform="translate(470.704 420.961)">
                <path id="Path_807" data-name="Path 807" d="M551.3,184.336s-39.62-10.624-62.044,0c-38.53,18.258-29.081,55.147-89.185,80.485S130.517,325.088,181.813,395.566s78.126,41.812,161.5,64.168,101.357,48.03,124.623,65.915,35.773,24.921,76.5,22.05c42.576-3,54.268-23.864,52.394-57.458-1.637-29.365-9.351-43.247-11.352-74.46-2.045-31.885,3.291-42.816,5.105-88.709C592.706,273.343,614.121,209.674,551.3,184.336Z" transform="translate(-173.801 -179.615)" fill="none" stroke="#84fea3" stroke-miterlimit="10" stroke-width="2" fill-rule="evenodd"/>
                <path id="Path_808" data-name="Path 808" d="M495.332,214.607c-20.27-1.166-41.142,5.836-57.693,14.819-22.361,12.136-25.712,21.184-64.524,37.546C318.013,290.2,155.392,314.188,197.093,380.6c29.11,46.357,58.1,37.294,134.531,57.79s94.034,43.037,115.363,59.434c12.735,9.791,29.045,14.77,46.728,16.4,18.778,1.735,42.273,3.374,53.869-10.819,12.212-14.949,3.324-35.065,2.208-51.291-1.224-17.8,1.135-35.584,1.823-53.366,1.736-44.847,6.661-88.007,2.433-132.923-1.763-18.722-15.558-37.95-38.049-46.8A66.62,66.62,0,0,0,495.332,214.607Z" transform="translate(-160.223 -165.664)" fill="none" stroke="#87d2e5" stroke-miterlimit="10" stroke-width="0.25" fill-rule="evenodd"/>
                <path id="Path_809" data-name="Path 809" d="M425.7,242.309c-28.48,7.1-53.933,20.54-79.982,31.52-50.1,21.122-162.188,32.826-133.784,96.51,9.48,21.259,35.589,35.422,105.087,54.059s89.187,35.4,108.582,50.309S458.98,494.62,492.223,488.8c43.7-7.659,21.153-54.89,25.329-77.25,3.023-16.2,11.374-31.741,12-48.22.756-20.087-1.2-37.123-3.81-57.118-2.193-16.776-5.586-36.207-17.1-50.9-14.877-18.983-45.994-20-71.283-15.492Q431.437,240.869,425.7,242.309Z" transform="translate(-146.209 -156.419)" fill="none" stroke="#87d2e5" stroke-miterlimit="10" stroke-width="1" fill-rule="evenodd"/>
              </g>
              <path id="Path_810" data-name="Path 810" d="M533.567-14.7c-5.389,1.381-27.559,57.651-79.658,74.225s-42.324,27.816-24.592,69.344c18.973,44.434,8.491,46.858,13.085,66.086,3.049,12.759,48.493,18.834,48.061-13.13-.155-11.468-23.612-67.85,31.717-87.571,51.655-18.409,162.652-61.867,251.856-27.147C910,120.027,1022.054,15.743,978.53-5.82Z" transform="translate(495.11 163.596)" fill="none" stroke="#87d2e5" stroke-miterlimit="10" stroke-width="1" fill-rule="evenodd"/>
              <path id="Path_811" data-name="Path 811" d="M655.74-3.921c-3.24.391-21.4-2.869-53.119,2.741s-50.884,5.637-88.435,27.89C486.374,43.194,453.5,56.539,455.918,65.6c1.4,5.2,19.14,5.393,24.184,5.284,12.62-.277,24.657-4.552,35.19-9.606,21.224-10.183,40.161-21.345,63.315-29.044,23.923-7.953,49.373-13.5,75.436-14.959,30.425-1.7,60.966,2.629,88.2,13.3C793.67,50.731,903.7,12.169,881.6-3.3Z" transform="translate(528.512 167.673)" fill="none" stroke="#87d2e5" stroke-miterlimit="10" stroke-width="0.5" fill-rule="evenodd"/>
              <g id="Group_1349" data-name="Group 1349" transform="translate(860.847 665.763)">
                <path id="Path_812" data-name="Path 812" d="M1181.914,537.1s25.772-167.282-103.525-180.835-89.058,51.838-199.245,101.1c-39.732,17.761-122.656,14.994-207.179-30.191-74.928-40.056-70.436,27.939-97.585,64.361-40.062,53.745-108.5,61.73-181.966,77.543s795.72,17.772,795.72,17.772Z" transform="translate(-388.008 -354.459)" fill="none" stroke="#87d2e5" stroke-miterlimit="10" stroke-width="0.25" fill-rule="evenodd"/>
                <path id="Path_813" data-name="Path 813" d="M1132.631,537.634c-1.235-2.375,44.2-130.777-72.129-153.932-92.881-18.489-92.584,31.928-146.093,74.916-8.068,6.483-18.243,11.985-30.933,16.52-38.02,13.49-113.5,6.1-190.989-25.916-3.623-1.5-7.127-2.758-10.478-3.87-59.144-19.618-62.346,22.151-93.037,51.356a158.029,158.029,0,0,1-18.412,15.506c-46.983,32.833-116.447,31.756-143.4,46.735C378.18,569.492,1123.448,570.8,1123.448,570.8Z" transform="translate(-357.754 -344.33)" fill="none" stroke="#87d2e5" stroke-miterlimit="10" stroke-width="0.5" fill-rule="evenodd"/>
                <path id="Path_814" data-name="Path 814" d="M1083.618,538.176c-2.472-4.748,62.57-92.962-40.734-127.027-72.345-23.857-88.282,27.308-127.105,67.293-6.53,6.725-15.751,11.415-27.7,14.484-36.31,9.217-104.525-2.635-174.8-21.644-3.375-.913-6.7-1.672-9.943-2.368-54.571-11.73-62.918,9.433-99.5,32.981-5.943,3.825-12.1,7.888-19.166,11.673-53.545,28.655-132.167,18.993-122.5,35.266-24.488,5.272,596.864,5.924,596.864,5.924Z" transform="translate(-327.768 -334.214)" fill="none" stroke="#87d2e5" stroke-miterlimit="10" stroke-width="0.75" fill-rule="evenodd"/>
                <path id="Path_815" data-name="Path 815" d="M1040.783,538.653c-3.706-7.122,79.43-53.126-9.338-100.124-52.77-27.939-83.075,23.11-108.116,59.672-20.453,29.862-105.8,1.452-192.489-5.792-56.833-4.748-65.43-1.518-125.891,22.447s-147.885,6.23-101.6,23.8Z" transform="translate(-303.963 -324.034)" fill="none" stroke="#87d2e5" stroke-miterlimit="10" stroke-width="1" fill-rule="evenodd"/>
              </g>
            </g>
          </g>
        </g>
      </g>
    </g>
    <rect id="Rectangle_469" data-name="Rectangle 469" width="1366" height="540" transform="translate(5957 2896)" fill="#f6f6f6" opacity="0"/>
  </g>
</svg>
