<?xml version="1.0" encoding="utf-8"?>
<!-- Generator: Adobe Illustrator 25.4.1, SVG Export Plug-In . SVG Version: 6.00 Build 0)  -->
<svg version="1.1" id="Layer_1" xmlns="http://www.w3.org/2000/svg" xmlns:xlink="http://www.w3.org/1999/xlink" x="0px" y="0px"
	 viewBox="0 0 228 94" style="enable-background:new 0 0 228 94;" xml:space="preserve">
<style type="text/css">
	.st0{fill:#FFFFFF;}
	.st1{fill:#9D9B9D;}
	.st2{fill:#C3991C;}
	.st3{fill:#12100B;}
	.st4{fill:#184A99;}
</style>
<g>
	<g>
		<g>
			<g>
				<path class="st0" d="M11.29,70.81h8.98c2.63,0,4.73,0.82,6.02,2.11c1.01,1.01,1.62,2.44,1.62,3.97v0.06
					c0,3.57-2.66,5.62-6.26,6.11l7.06,9.13h-2.02l-6.81-8.86h-6.99v8.86h-1.59V70.81z M20.09,81.9c3.57,0,6.23-1.8,6.23-4.89v-0.06
					c0-2.87-2.26-4.67-6.14-4.67h-7.3v9.62H20.09z"/>
				<path class="st0" d="M77.98,70.81h1.59v19.91h12.55v1.47H77.98V70.81z"/>
				<path class="st0" d="M106.05,70.81h15.21v1.47h-13.62v8.4h13.62v1.47h-13.62v8.58h13.62v1.47h-15.21V70.81z"/>
				<path class="st0" d="M33.38,70.81h15.21v1.47H34.97v8.4h13.62v1.47H34.97v8.58h13.62v1.47H33.38V70.81z"/>
				<path class="st0" d="M125.14,89.08l1.04-1.19c2.35,2.17,4.52,3.18,7.67,3.18c3.21,0,5.41-1.8,5.41-4.25v-0.06
					c0-2.26-1.19-3.57-6.05-4.55c-5.13-1.04-7.21-2.78-7.21-6.02v-0.06c0-3.18,2.9-5.62,6.87-5.62c3.12,0,5.16,0.86,7.33,2.6
					l-1.01,1.25c-2.02-1.74-4.03-2.41-6.38-2.41c-3.15,0-5.22,1.8-5.22,4.03v0.06c0,2.26,1.16,3.63,6.23,4.67
					c4.95,1.01,7.03,2.78,7.03,5.89v0.06c0,3.45-2.96,5.83-7.09,5.83C130.33,92.5,127.7,91.37,125.14,89.08z"/>
				<path class="st0" d="M151.53,72.28h-7.45v-1.47h16.49v1.47h-7.45V92.2h-1.59V72.28z"/>
				<path class="st0" d="M170.77,70.66h1.53l9.96,21.53h-1.74l-2.72-5.99h-12.61l-2.72,5.99h-1.65L170.77,70.66z M177.13,84.77
					l-5.62-12.37l-5.65,12.37H177.13z"/>
				<path class="st0" d="M62.91,70.66h1.53l9.96,21.53h-1.74l-2.72-5.99H57.32L54.6,92.2h-1.65L62.91,70.66z M69.26,84.77
					L63.64,72.4l-5.65,12.37H69.26z"/>
				<path class="st0" d="M189.96,72.28h-7.45v-1.47H199v1.47h-7.45V92.2h-1.59V72.28z"/>
				<path class="st0" d="M203.83,70.81h15.21v1.47h-13.62v8.4h13.62v1.47h-13.62v8.58h13.62v1.47h-15.21V70.81z"/>
			</g>
		</g>
	</g>
	<path class="st0" d="M11.3,58.47V6.73c0-2.77,2.25-5.02,5.02-5.02h27.42v11.96H24.35v11.96h16.85v11.3H24.35v14.59h19.38v11.96
		H16.31C13.54,63.49,11.3,61.24,11.3,58.47z"/>
	<path class="st0" d="M72.66,1.72H48.92v61.77h23.74c6.09,0,11.03-4.94,11.03-11.03v-39.7C83.7,6.66,78.76,1.72,72.66,1.72z
		 M66.9,51.53h-5.2V13.68h5.2c2.22,0,4.01,1.8,4.01,4.01v29.83C70.91,49.73,69.12,51.53,66.9,51.53z"/>
	<path class="st0" d="M124.67,23.68c-1.55-1.13-2.47-2.94-2.47-4.86v-1.68c0-1.92,1.55-3.47,3.47-3.47l0.1,0
		c1.92,0,3.47,1.55,3.47,3.47c0,1.55,0,3.01,0,3.01h12.86V12.8c0-6.24-5.06-11.3-11.3-11.3h0h-8.64h-1.21
		c-6.24,0-11.3,5.06-11.3,11.3v9.39c0,4.45,2.22,8.61,5.91,11.09l9.68,6.49c2.2,1.41,4.09,2.89,4.11,4.78
		c0,0.44,0.01,2.57,0.01,3.51c0,1.91-1.55,3.47-3.46,3.47l0,0c-1.91,0-3.46-1.55-3.46-3.46v-5.01h-12.78v8.97
		c0,6.24,5.06,11.3,11.3,11.3h1.91h6.46h1.48c6.24,0,11.3-5.06,11.3-11.3v-9.13c0-4.81-2.42-9.3-6.43-11.95L124.67,23.68z"/>
	<path class="st0" d="M221.79,2.63V1.5h-15.03v27.48L199.3,1.5h-12.89v61.82h12.89V35.76l7.9,27.73h7.09c2.99,0,5.42-2.43,5.42-5.42
		V4.71C219.7,3.56,220.64,2.63,221.79,2.63L221.79,2.63z"/>
	<path class="st0" d="M181.22,47.44V17.77c0-8.86-7.19-16.05-16.05-16.05h-1.83c-8.86,0-16.05,7.19-16.05,16.05v29.67
		c0,8.86,7.19,16.05,16.05,16.05h1.83C174.03,63.49,181.22,56.3,181.22,47.44z M160.07,47.34V17.86c0-2.31,1.87-4.18,4.18-4.18h0
		c2.31,0,4.18,1.87,4.18,4.18v29.49c0,2.31-1.87,4.18-4.18,4.18h0C161.94,51.53,160.07,49.65,160.07,47.34z"/>
	<g>
		<polygon class="st0" points="88.89,1.72 88.89,19.71 104.46,7.64 104.46,1.72 		"/>
		<polygon class="st0" points="88.89,26.95 88.89,63.49 104.46,63.49 104.46,14.66 		"/>
	</g>
</g>
</svg>
