<svg xmlns="http://www.w3.org/2000/svg" width="16" height="10.8" viewBox="0 0 16 10.8">
  <path id="Icon_zocial-email" data-name="Icon zocial-email" d="M.072,13.912V5.025q0-.015.046-.293l5.23,4.474L.134,14.22a1.308,1.308,0,0,1-.062-.309Zm.694-9.8a.665.665,0,0,1,.262-.046H15.115a.874.874,0,0,1,.278.046L10.147,8.6l-.694.555L8.08,10.286,6.707,9.16,6.012,8.6ZM.782,14.822,6.043,9.777,8.08,11.428l2.037-1.651,5.261,5.045a.741.741,0,0,1-.262.046H1.029a.7.7,0,0,1-.247-.046ZM10.811,9.206l5.215-4.474a.921.921,0,0,1,.046.293v8.887a1.183,1.183,0,0,1-.046.309Z" transform="translate(-0.072 -4.068)" fill="#2066b0"/>
</svg>
