<svg xmlns="http://www.w3.org/2000/svg" width="20" height="20" viewBox="0 0 20 20">
  <g id="Group_1484" data-name="Group 1484" transform="translate(-1229 -485)">
    <path id="Path_1126" data-name="Path 1126" d="M16,2H4A2.006,2.006,0,0,0,2,4V16a2.006,2.006,0,0,0,2,2H16a2.006,2.006,0,0,0,2-2V4A2.006,2.006,0,0,0,16,2ZM9,16H4V11H9Zm7,0H11V11h5Zm0-7H4V4H16Z" transform="translate(1227 483)" fill="#fff"/>
    <path id="Path_1127" data-name="Path 1127" d="M20,6V20H6v2H20a2.006,2.006,0,0,0,2-2V6Z" transform="translate(1227 483)" fill="#fff"/>
  </g>
</svg>
