<svg xmlns="http://www.w3.org/2000/svg" width="169.366" height="17.947" viewBox="0 0 169.366 17.947"><g transform="translate(392 -3894)"><path d="M13.4,6a51.419,51.419,0,0,0-7.3.55A3.17,3.17,0,0,0,3.425,9.1,27.241,27.241,0,0,0,3,14a27.241,27.241,0,0,0,.425,4.9A3.166,3.166,0,0,0,6.1,21.45a51.7,51.7,0,0,0,7.3.55,51.7,51.7,0,0,0,7.3-.55,3.166,3.166,0,0,0,2.675-2.55A27.33,27.33,0,0,0,23.8,14a27.04,27.04,0,0,0-.425-4.9A3.17,3.17,0,0,0,20.7,6.55,51.419,51.419,0,0,0,13.4,6Zm0,1.6a50.5,50.5,0,0,1,7.075.525A1.573,1.573,0,0,1,21.8,9.4a25.536,25.536,0,0,1,.4,4.6,25.566,25.566,0,0,1-.4,4.6,1.566,1.566,0,0,1-1.325,1.275A50.83,50.83,0,0,1,13.4,20.4a50.789,50.789,0,0,1-7.075-.525A1.57,1.57,0,0,1,5,18.6,25.508,25.508,0,0,1,4.6,14,25.48,25.48,0,0,1,5,9.4,1.57,1.57,0,0,1,6.325,8.125,50.455,50.455,0,0,1,13.4,7.6ZM11,9.425v9.15l1.2-.675,5.6-3.2L19,14l-1.2-.7-5.6-3.2Zm1.6,2.75L15.775,14,12.6,15.825Z" transform="translate(-286.914 3889)" fill="#fff"/><g transform="translate(-392 3895)"><g transform="translate(0 0)"><path d="M228.337,146.8v-8.485h2.8l.442-2.812h-3.242V134.1c0-.734.241-1.434,1.294-1.434h2.1v-2.806h-2.988c-2.512,0-3.2,1.654-3.2,3.948v1.7h-1.724v2.813h1.724v7.425h2.788Z" transform="translate(-223.825 -129.856)" fill="#fff"/></g></g><g transform="translate(-362.559 3894)"><g transform="translate(0 0)"><path d="M12.089,0H5.5A5.5,5.5,0,0,0,0,5.5v6.594a5.5,5.5,0,0,0,5.5,5.5h6.594a5.5,5.5,0,0,0,5.5-5.5V5.5A5.5,5.5,0,0,0,12.089,0Zm3.847,12.089a3.851,3.851,0,0,1-3.847,3.847H5.5a3.851,3.851,0,0,1-3.847-3.847V5.5A3.851,3.851,0,0,1,5.5,1.649h6.594A3.851,3.851,0,0,1,15.936,5.5Z" fill="#fff"/></g><g transform="translate(4.941 4.941)"><path d="M131.851,128a3.851,3.851,0,1,0,3.851,3.851A3.851,3.851,0,0,0,131.851,128Zm0,6.258a2.407,2.407,0,1,1,2.407-2.407A2.41,2.41,0,0,1,131.851,134.258Z" transform="translate(-128 -128)" fill="#fff"/></g><g transform="translate(12.142 3.395)"><ellipse cx="1.024" cy="1.024" rx="1.024" ry="1.024" fill="#fff"/></g></g><g transform="translate(-323.457 3894)"><g transform="translate(0 0)"><rect width="3.873" height="11.63" transform="translate(0.223 5.598)" fill="#fff"/><path d="M162.171,140.663a4.168,4.168,0,0,0-3.227-1.332,4.652,4.652,0,0,0-1.344.182,3.049,3.049,0,0,0-1.021.51,4.372,4.372,0,0,0-1.121,1.231V139.6H151.6l.012.563q.012.563.012,3.474t-.023,7.593h3.861v-6.49a2.834,2.834,0,0,1,.129-.951,2.493,2.493,0,0,1,.745-1,1.9,1.9,0,0,1,1.238-.405,1.67,1.67,0,0,1,1.485.7,3.4,3.4,0,0,1,.475,1.931v6.22h3.861v-6.665A5.588,5.588,0,0,0,162.171,140.663Z" transform="translate(-145.366 -134.003)" fill="#fff"/><path d="M2.183,9.708A2.209,2.209,0,0,0,.6,10.277,1.89,1.89,0,0,0,0,11.715a1.923,1.923,0,0,0,.587,1.432,2.118,2.118,0,0,0,1.549.575h.023a2.211,2.211,0,0,0,1.59-.575,1.858,1.858,0,0,0,.593-1.432,1.957,1.957,0,0,0-.6-1.438A2.146,2.146,0,0,0,2.183,9.708Z" transform="translate(0 -9.708)" fill="#fff"/></g></g><g transform="translate(-241.596 3895)"><g transform="translate(0 0)"><path d="M18.406,43.917q-.14.041-.28.076c-.571.144-.624-.046-.21-.466a3.812,3.812,0,0,0,.491-.614c.319-.5.042-.712-.5-.48q-.29.124-.589.224a2.465,2.465,0,0,1-1.849-.411,4.092,4.092,0,0,0-5.01.588A3.906,3.906,0,0,0,9.273,45.7a4.279,4.279,0,0,0,.026.467c.028.257-.4.443-.988.36a11.214,11.214,0,0,1-3.6-1.147,11.539,11.539,0,0,1-2.984-2.2c-.412-.422-.97-.385-1.124.184a4.06,4.06,0,0,0-.138,1.064,3.947,3.947,0,0,0,.489,1.932,4.148,4.148,0,0,0,.57.8c.367.4.311.637-.2.493a6.582,6.582,0,0,1-.885-.342v.025a3.914,3.914,0,0,0,.922,2.578,4.033,4.033,0,0,0,1.32,1.056c.528.262.774.408.479.446a4.189,4.189,0,0,1-.538.035q-.183,0-.384-.017c-.211-.018-.249.422.071.917A4.057,4.057,0,0,0,3.29,53.4a3.965,3.965,0,0,0,1.305.655c.567.162.681.456.175.759A7.918,7.918,0,0,1,.617,55.937q-.256,0-.49-.011c-.27-.013-.089.225.433.5a11.252,11.252,0,0,0,5.3,1.281,11.848,11.848,0,0,0,4.052-.683,10.305,10.305,0,0,0,3.236-1.832,12.256,12.256,0,0,0,2.315-2.641,11.779,11.779,0,0,0,1.449-3.117,11.519,11.519,0,0,0,.477-3.256c0-.1,0-.186,0-.263,0-.146.382-.54.812-.943q.291-.273.556-.574C19.145,43.955,18.972,43.752,18.406,43.917Z" transform="translate(-0.003 -41.648)" fill="#fff"/></g></g></g></svg>